<?xml version="1.0" encoding="UTF-8"?>
<svg version="1.1" xmlns="http://www.w3.org/2000/svg" width="500" height="500">
<path d="M0 0 C2.77255299 0.00108441 5.54508382 -0.00385068 8.31763196 -0.00860542 C14.87353981 -0.01962902 21.42939034 -0.02017908 27.98530293 -0.01409125 C34.68816026 -0.00806144 41.39080716 -0.02035375 48.09362864 -0.04166132 C53.90314631 -0.05943173 59.71259794 -0.06525458 65.5221417 -0.06202358 C68.96774271 -0.06023449 72.4131937 -0.06260277 75.85876942 -0.07673812 C94.80169422 -0.13830535 113.3458128 0.42405032 131.62690449 5.92658257 C132.48050556 6.17819146 133.33410664 6.42980035 134.21357441 6.68903375 C180.73257212 20.96234289 219.22930011 53.06216316 242.47993183 95.66632867 C255.09723069 119.78600314 262.30161708 146.34118611 262.36640644 173.57892632 C262.37297764 174.79000054 262.37954884 176.00107476 262.38631916 177.2488482 C262.40597799 181.24559562 262.41771968 185.24230296 262.42768574 189.23908257 C262.43174075 190.62784618 262.43585787 192.01660961 262.44003582 193.40537286 C262.45906989 199.94503909 262.47329551 206.48469428 262.48164779 213.02438283 C262.49136466 220.50426459 262.51754461 227.98384603 262.55814868 235.46362233 C262.58864164 241.28661801 262.60314816 247.10952937 262.6064288 252.93260312 C262.60874508 256.38970675 262.6172418 259.84648928 262.64288998 263.30350518 C262.9843616 316.75960162 245.39605092 362.00927571 208.31440449 400.48908257 C202.36869792 406.30096295 195.82988589 411.31920436 189.18940449 416.30158257 C188.36956074 416.92806695 187.54971699 417.55455132 186.70502949 418.20002007 C170.28808427 430.25798329 151.21201856 438.8473128 131.75190449 444.61408257 C130.99159931 444.8445025 130.23129414 445.07492242 129.44794941 445.31232476 C111.27399448 450.39141096 92.84893873 450.77072463 74.10495949 450.73749065 C71.35245582 450.73434477 68.60000097 450.74055004 65.84750438 450.7465294 C59.3354511 450.7604575 52.82352931 450.75911359 46.3114748 450.7476275 C39.66989096 450.7361693 33.02871206 450.75021014 26.38718152 450.77702397 C20.6148728 450.79942627 14.84268887 450.80576379 9.07033992 450.79994756 C5.65369396 450.7966331 2.23730668 450.7986121 -1.17930126 450.81619859 C-54.7431521 451.02883568 -99.6828602 433.12213375 -138.37309551 396.11408257 C-168.99519076 364.72755911 -187.88320907 320.9095912 -187.98759747 277.02423882 C-187.99416866 275.81316461 -188.00073986 274.60209039 -188.00751019 273.35431695 C-188.02716901 269.35756953 -188.03891071 265.36086219 -188.04887676 261.36408257 C-188.05293177 259.97531897 -188.05704889 258.58655554 -188.06122684 257.19779229 C-188.08026091 250.65812606 -188.09448654 244.11847087 -188.10283881 237.57878232 C-188.11255568 230.09890056 -188.13873563 222.61931912 -188.17933971 215.13954282 C-188.20983267 209.31654714 -188.22433918 203.49363578 -188.22761983 197.67056203 C-188.2299361 194.2134584 -188.23843283 190.75667587 -188.264081 187.29965997 C-188.60210411 134.383415 -171.35917317 88.78077575 -134.49809551 50.67658257 C-128.35863659 44.65991283 -121.6886846 39.43548734 -114.81059551 34.30158257 C-113.9688377 33.6647857 -113.12707989 33.02798882 -112.25981426 32.37189507 C-78.83083284 7.98840275 -40.61989792 -0.03155743 0 0 Z M41.43940449 129.11408257 C39.6730666 129.36182427 39.6730666 129.36182427 37.87104511 129.61457086 C30.90697199 130.52975809 30.90697199 130.52975809 25.18940449 134.30158257 C24.85559635 137.92722071 24.85559635 137.92722071 25.18940449 141.30158257 C27.49940449 141.63158257 29.80940449 141.96158257 32.18940449 142.30158257 C31.52940449 152.20158257 30.86940449 162.10158257 30.18940449 172.30158257 C28.20940449 169.33158257 26.22940449 166.36158257 24.18940449 163.30158257 C17.05263207 154.3112668 8.48865337 149.75435728 -1.81059551 145.30158257 C-2.74774395 144.88005914 -3.68489239 144.4585357 -4.65043926 144.02423882 C-33.65253702 132.18208797 -74.62177449 134.57197557 -103.81059551 144.30158257 C-104.03747051 143.68283257 -104.26434551 143.06408257 -104.49809551 142.42658257 C-106.29607433 139.51556925 -107.49602341 139.1478563 -110.81059551 138.30158257 C-113.78059551 138.30158257 -116.75059551 138.30158257 -119.81059551 138.30158257 C-119.81059551 191.10158257 -119.81059551 243.90158257 -119.81059551 298.30158257 C-103.44319628 302.39343238 -88.48305529 298.73432272 -72.81059551 293.30158257 C-72.07711895 293.05279351 -71.34364239 292.80400445 -70.58793926 292.54767632 C-39.50171035 281.936768 -12.4247783 266.13513122 11.18940449 243.30158257 C11.96026386 242.5822857 12.73112324 241.86298882 13.52534199 241.12189507 C19.88525033 235.05439632 24.90080652 227.96439276 29.18940449 220.30158257 C29.18940449 219.64158257 29.18940449 218.98158257 29.18940449 218.30158257 C29.84940449 218.30158257 30.50940449 218.30158257 31.18940449 218.30158257 C31.17369404 219.28771539 31.17369404 219.28771539 31.15766621 220.29377007 C30.91751747 238.24108807 31.38432041 256.12019456 32.12690449 274.05158257 C32.17047077 275.13794 32.21403706 276.22429742 32.25892353 277.34357476 C32.38499904 280.44964351 32.51814439 283.55531372 32.65424824 286.66095757 C32.69284458 287.60549798 32.73144093 288.55003839 32.77120686 289.52320123 C32.81116276 290.38818231 32.85111866 291.25316339 32.89228535 292.14435601 C32.92559452 292.90214349 32.95890369 293.65993096 32.99322224 294.4406817 C33.08900488 296.39326267 33.08900488 296.39326267 34.18940449 298.30158257 C36.36885494 299.07578414 38.58537067 299.74699216 40.81440449 300.36408257 C42.02354511 300.70568414 43.23268574 301.0472857 44.47846699 301.39923882 C80.67664165 310.20111077 123.65034594 297.55064703 156.18940449 281.30158257 C157.24514668 280.77951226 158.30088886 280.25744195 159.38862324 279.71955132 C171.13748639 273.6679656 185.35373813 265.43650567 192.93940449 254.30158257 C193.51174824 253.47658257 194.08409199 252.65158257 194.67377949 251.80158257 C198.35125768 245.73563916 199.13272426 240.30769711 198.18940449 233.30158257 C194.96393982 224.76274084 187.32669057 220.51905589 179.37690449 216.86408257 C157.04282948 207.13523428 130.3899552 203.81438372 106.18940449 204.30158257 C106.18940449 203.64158257 106.18940449 202.98158257 106.18940449 202.30158257 C106.79784199 202.17783257 107.40627949 202.05408257 108.03315449 201.92658257 C117.13970056 199.78386585 125.01060598 195.70859496 133.18940449 191.30158257 C134.29155293 190.70861382 135.39370136 190.11564507 136.52924824 189.50470757 C147.04680989 183.60296127 158.85593238 176.34692403 162.75190449 164.23908257 C163.37434483 158.63711949 161.8807519 155.69843679 158.77534199 151.29767632 C145.61990723 134.86896988 119.93860858 130.27667388 100.06440449 128.05158257 C80.55722469 126.21767406 60.83807385 126.38534998 41.43940449 129.11408257 Z " fill="#FD725B" transform="translate(212.81059551239014,24.69841742515564)"/>
<path d="M0 0 C1.051875 0.721875 2.10375 1.44375 3.1875 2.1875 C10.32397825 9.32397825 15.00279722 17.8908568 16 28 C15.64869753 47.38750502 3.61450219 61.93859508 -9.52099609 75.01098633 C-21.1734965 86.2270185 -34.76437662 94.48626553 -49 102 C-49.64791504 102.35046387 -50.29583008 102.70092773 -50.96337891 103.06201172 C-66.54109891 111.46909674 -83.13448617 118 -101 118 C-101 77.08 -101 36.16 -101 -6 C-69.84340472 -17.68372323 -28.49508343 -19.61349899 0 0 Z " fill="#FD725B" transform="translate(215,191)"/>
<path d="M0 0 C0.6922467 -0.0054483 1.38449341 -0.01089661 2.09771729 -0.01651001 C20.01707647 -0.12161747 41.69637937 0.69076879 56.03125 12.80859375 C59.62195611 16.47551767 61.20185727 19.84446299 61.40234375 24.99609375 C60.68700219 32.50067702 55.79593794 37.32491125 50.2578125 42.0234375 C21.84130738 62.63082671 -20.91472174 68.6467503 -55.1105957 68.27905273 C-56.00222412 68.26946533 -56.89385254 68.25987793 -57.8125 68.25 C-59.46089095 58.39404201 -60.63223115 48.51874129 -61.67236328 38.58325195 C-61.93824038 36.05546097 -62.21304069 33.52873965 -62.48828125 31.00195312 C-63.33709138 23.05072865 -64.05793594 15.25939277 -63.8125 7.25 C-42.35877843 3.00869716 -21.86438768 0.10419762 0 0 Z " fill="#FC725B" transform="translate(326.8125,241.75)"/>
<path d="M0 0 C0.84986984 -0.00287018 1.69973969 -0.00574036 2.57536316 -0.00869751 C4.36787587 -0.01072676 6.1604113 -0.00527719 7.95288086 0.00732422 C10.62342282 0.02317313 13.2923996 0.00755207 15.96289062 -0.01171875 C56.30703622 -0.06037692 56.30703622 -0.06037692 69.10546875 10.5234375 C72.2207663 13.78033948 73.04558736 15.23052572 73.29296875 19.5859375 C73.19164699 24.11646764 72.1622184 26.46323693 68.9765625 29.65625 C46.06714353 48.47319449 8.02353976 58.18512821 -21.14453125 57.3984375 C-20.24034055 28.38292887 -20.24034055 28.38292887 -19.64453125 15.7734375 C-19.6091626 14.97067383 -19.57379395 14.16791016 -19.53735352 13.34082031 C-19.17190131 6.03177611 -19.17190131 6.03177611 -18.14453125 3.3984375 C-12.69024316 0.16988815 -6.17318326 -0.04759562 0 0 Z " fill="#FB715B" transform="translate(281.14453125,167.6015625)"/>
<path d="M0 0 C0 3.64717645 -0.84985628 6.54956883 -2 10 C-2.99 10.495 -2.99 10.495 -4 11 C-1.03 11.66 1.94 12.32 5 13 C5 13.33 5 13.66 5 14 C-4.34956835 13.48484207 -13.68180768 12.94590721 -23 12 C-23 11.34 -23 10.68 -23 10 C-22.01 9.61328125 -21.02 9.2265625 -20 8.828125 C-13.18005866 6.14433181 -6.48292757 3.43992075 0 0 Z " fill="#F4735D" transform="translate(342,217)"/>
<path d="M0 0 C0.66 0 1.32 0 2 0 C2.14586411 3.99768528 2.28806438 7.99548458 2.42724609 11.9934082 C2.49785614 14.0015296 2.57115168 16.00955602 2.64453125 18.01757812 C2.95568858 27.01891524 3.05818226 35.99387166 3 45 C2.34 44.67 1.68 44.34 1 44 C1 34.43 1 24.86 1 15 C-0.65 15 -2.3 15 -4 15 C-4 14.01 -4 13.02 -4 12 C-4.66 12 -5.32 12 -6 12 C-4.43358249 7.69235185 -2.31663844 3.93828536 0 0 Z " fill="#E97460" transform="translate(242,243)"/>
<path d="M0 0 C0.66 0 1.32 0 2 0 C-1.20157755 8.98716947 -7.53167316 16.24316473 -15 22 C-14.59287177 16.80911501 -13.91382777 13.58767546 -10 10 C-7.25 9.6875 -7.25 9.6875 -5 10 C-4.896875 9.236875 -4.79375 8.47375 -4.6875 7.6875 C-3.94348803 4.77908957 -3.20194413 3.92670112 -1 2 C-0.67 1.34 -0.34 0.68 0 0 Z " fill="#EB7361" transform="translate(223,240)"/>
<path d="M0 0 C-2.08000011 0.84161854 -4.16414146 1.67300763 -6.25 2.5 C-7.41015625 2.9640625 -8.5703125 3.428125 -9.765625 3.90625 C-13 5 -13 5 -17 5 C-17 5.66 -17 6.32 -17 7 C-18.65 7.33 -20.3 7.66 -22 8 C-22 8.99 -22 9.98 -22 11 C-22.66 11 -23.32 11 -24 11 C-24.33 11.66 -24.66 12.32 -25 13 C-28.02485781 12.4118332 -31.01386614 11.75929472 -34 11 C-5.15147052 -2.00057108 -5.15147052 -2.00057108 0 0 Z " fill="#EB7563" transform="translate(158,32)"/>
<path d="M0 0 C-2.75801148 1.83867432 -4.11789935 2.40971705 -7.23828125 3.0703125 C-8.05876953 3.24433594 -8.87925781 3.41835937 -9.72460938 3.59765625 C-10.57861328 3.77167969 -11.43261719 3.94570312 -12.3125 4.125 C-13.57610352 4.39763672 -13.57610352 4.39763672 -14.86523438 4.67578125 C-19.31667879 5.60157031 -23.42581758 6.22385885 -28 6 C-26 4 -26 4 -23.375 3.875 C-22.59125 3.91625 -21.8075 3.9575 -21 4 C-20.67 3.01 -20.34 2.02 -20 1 C-16.7 1.33 -13.4 1.66 -10 2 C-10 1.34 -10 0.68 -10 0 C-6.7169902 -1.6415049 -3.57454967 -0.51888624 0 0 Z " fill="#E87562" transform="translate(305,217)"/>
<path d="M0 0 C5.75 1.625 5.75 1.625 8 5 C7.01 5.495 7.01 5.495 6 6 C5.67 6.99 5.34 7.98 5 9 C5.66 9 6.32 9 7 9 C7.66 11.31 8.32 13.62 9 16 C9.66 16 10.32 16 11 16 C11.33 17.98 11.66 19.96 12 22 C9.69407737 19.87225288 8.20174065 17.82790923 6.73828125 15.05859375 C6.34189453 14.31029297 5.94550781 13.56199219 5.53710938 12.79101562 C5.13298828 12.01435547 4.72886719 11.23769531 4.3125 10.4375 C3.89677734 9.65697266 3.48105469 8.87644531 3.05273438 8.07226562 C0 2.26254618 0 2.26254618 0 0 Z " fill="#E87563" transform="translate(40,368)"/>
<path d="M0 0 C0 0.33 0 0.66 0 1 C-23.78877436 6.76303063 -23.78877436 6.76303063 -34 7 C-31.70176341 4.70176341 -31.05119118 4.70309616 -27.9375 4.4375 C-24.23263383 4.44086552 -24.23263383 4.44086552 -23 3 C-21.48071962 2.92820036 -19.95832518 2.91607993 -18.4375 2.9375 C-17.61121094 2.94652344 -16.78492188 2.95554687 -15.93359375 2.96484375 C-15.29550781 2.97644531 -14.65742188 2.98804688 -14 3 C-14 2.34 -14 1.68 -14 1 C-9.27685687 0.22887459 -4.78478822 -0.09764874 0 0 Z " fill="#E57867" transform="translate(338,300)"/>
<path d="M0 0 C0 0.99 0 1.98 0 3 C-0.66 3 -1.32 3 -2 3 C-2.1546875 3.8971875 -2.1546875 3.8971875 -2.3125 4.8125 C-3.13380325 7.42573762 -3.82068885 8.34672947 -6 10 C-8 10.66666667 -10 11.33333333 -12 12 C-13.83689476 13.49886871 -13.83689476 13.49886871 -15 15 C-15.66 14.67 -16.32 14.34 -17 14 C-11.5488903 8.96567535 -6.15891648 4.15057415 0 0 Z " fill="#EA7464" transform="translate(102,56)"/>
<path d="M0 0 C1.33332095 2.6666419 0.67102033 4.16680303 0 7 C0.99 7 1.98 7 3 7 C3 9.64 3 12.28 3 15 C-0.67033927 11.72291137 -2.69281189 8.28477792 -5 4 C-4.34 4 -3.68 4 -3 4 C-2.67 3.01 -2.34 2.02 -2 1 C-1.34 0.67 -0.68 0.34 0 0 Z " fill="#F07460" transform="translate(57,387)"/>
<path d="M0 0 C0.33 0 0.66 0 1 0 C0.72986927 6.07794143 0.02699406 10.16760713 -4 15 C-6.25 16.875 -6.25 16.875 -8 18 C-8 15.69 -8 13.38 -8 11 C-7.05125 10.855625 -6.1025 10.71125 -5.125 10.5625 C-1.87141432 9.37038249 -1.87141432 9.37038249 -1.15625 6.86328125 C-0.66828424 4.57773573 -0.27688708 2.3201228 0 0 Z " fill="#EA7462" transform="translate(387,263)"/>
<path d="M0 0 C10.25180586 -0.39373934 17.89040089 0.34398268 27 5 C23.57877069 6.71061465 19.89437403 4.98556162 16.3125 4.125 C10.88429279 2.84204964 5.53702284 1.69676057 0 1 C0 0.67 0 0.34 0 0 Z " fill="#E87569" transform="translate(315,153)"/>
<path d="M0 0 C0.66 0.33 1.32 0.66 2 1 C0.07922701 5.54919918 -1.39004615 8.02430549 -6 10 C-8.8125 10.1875 -8.8125 10.1875 -11 10 C-7.54563567 6.40746109 -3.80635497 3.20760251 0 0 Z " fill="#EA755F" transform="translate(399,285)"/>
<path d="M0 0 C1.32 0.33 2.64 0.66 4 1 C-0.62 3.64 -5.24 6.28 -10 9 C-10.33 8.34 -10.66 7.68 -11 7 C-10.34 7 -9.68 7 -9 7 C-8.67 5.02 -8.34 3.04 -8 1 C-5.36 1.33 -2.72 1.66 0 2 C0 1.34 0 0.68 0 0 Z " fill="#E97464" transform="translate(171,287)"/>
<path d="M0 0 C-2.50133321 1.44307685 -4.21325045 2.02559005 -7.125 2.375 C-10.1317049 2.67975948 -10.1317049 2.67975948 -11.375 5.0625 C-11.58125 5.701875 -11.7875 6.34125 -12 7 C-12.66 7 -13.32 7 -14 7 C-14 6.01 -14 5.02 -14 4 C-15.98 4.99 -15.98 4.99 -18 6 C-18.66 5.34 -19.32 4.68 -20 4 C-17.60612843 3.32550034 -15.21030779 2.66023359 -12.8125 2 C-12.13896484 1.80921875 -11.46542969 1.6184375 -10.77148438 1.421875 C-7.09444844 0.4174164 -3.8149818 -0.23704741 0 0 Z " fill="#EA755E" transform="translate(139,179)"/>
<path d="M0 0 C1.125 3.6953125 1.125 3.6953125 0 6.4375 C-1.18664949 9.47828931 -0.65671654 10.88059645 0 14 C-2 17 -2 17 -4.125 17.6875 C-4.74375 17.790625 -5.3625 17.89375 -6 18 C-4.23536928 11.89262558 -2.30442525 5.92566493 0 0 Z " fill="#E47362" transform="translate(39,132)"/>
<path d="M0 0 C2.49361571 1.20381448 4.68143083 2.45428722 7 4 C4.67404054 5.16297973 3.21276769 5.16600691 0.625 5.1875 C-0.53128906 5.20876953 -0.53128906 5.20876953 -1.7109375 5.23046875 C-4.21834888 4.97801607 -5.83261902 4.25193467 -8 3 C-5.69 3 -3.38 3 -1 3 C-0.67 2.01 -0.34 1.02 0 0 Z " fill="#F27360" transform="translate(379,232)"/>
<path d="M0 0 C0.33 0.66 0.66 1.32 1 2 C0.67 2.99 0.34 3.98 0 5 C-0.721875 4.95875 -1.44375 4.9175 -2.1875 4.875 C-5.0045752 4.84140404 -5.0045752 4.84140404 -7.4375 6 C-10.43358948 7.16920565 -12.81164811 7.14829544 -16 7 C-12.83724506 4.89149671 -9.86528462 3.71169124 -6.3125 2.375 C-5.13300781 1.92898438 -3.95351563 1.48296875 -2.73828125 1.0234375 C-1.83464844 0.68570312 -0.93101562 0.34796875 0 0 Z " fill="#E87361" transform="translate(358,310)"/>
<path d="M0 0 C0.33 1.32 0.66 2.64 1 4 C0.319375 4.268125 -0.36125 4.53625 -1.0625 4.8125 C-2.66028481 5.45841301 -4.25415776 6.11671623 -5.8203125 6.8359375 C-7.52280834 7.61238958 -9.26038483 8.31071852 -11 9 C-11.66 8.67 -12.32 8.34 -13 8 C-8.71 5.36 -4.42 2.72 0 0 Z " fill="#EA7462" transform="translate(195,291)"/>
<path d="M0 0 C3.51104082 1.8978599 6.18963824 3.37927649 8 7 C8.40431142 10.05172042 8.56961091 12.96765955 8 16 C6.4765625 17.77734375 6.4765625 17.77734375 5 19 C5.08378906 18.31292969 5.16757812 17.62585938 5.25390625 16.91796875 C5.35574219 16.01691406 5.45757812 15.11585938 5.5625 14.1875 C5.66691406 13.29417969 5.77132813 12.40085938 5.87890625 11.48046875 C6.15658709 8.86624428 6.15658709 8.86624428 5 6 C4.34 5.690625 3.68 5.38125 3 5.0625 C1 4 1 4 0.25 1.875 C0.1675 1.25625 0.085 0.6375 0 0 Z " fill="#E17668" transform="translate(346,176)"/>
<path d="M0 0 C0.33 0.66 0.66 1.32 1 2 C1.99 2 2.98 2 4 2 C4 1.34 4 0.68 4 0 C5.65 0 7.3 0 9 0 C6.1237651 2.3223428 3.36219578 3.86565842 -0.0625 5.25 C-0.91972656 5.60578125 -1.77695312 5.9615625 -2.66015625 6.328125 C-5 7 -5 7 -8 6 C-5 4 -5 4 -1 4 C-0.67 2.68 -0.34 1.36 0 0 Z " fill="#E37763" transform="translate(365,457)"/>
<path d="M0 0 C3.94727588 -0.17942163 6.5980513 -0.09350689 10 2 C10 2.66 10 3.32 10 4 C10.99 3.67 11.98 3.34 13 3 C12.67 4.32 12.34 5.64 12 7 C8.04 5.02 4.08 3.04 0 1 C0 0.67 0 0.34 0 0 Z " fill="#EB7360" transform="translate(354,163)"/>
<path d="M0 0 C0.99 0.33 1.98 0.66 3 1 C4 4 4 4 3.0625 6.1875 C2.5365625 7.0846875 2.5365625 7.0846875 2 8 C0.68 8 -0.64 8 -2 8 C-1.125 2.25 -1.125 2.25 0 0 Z " fill="#F1745E" transform="translate(42,126)"/>
<path d="M0 0 C-1.65 0.33 -3.3 0.66 -5 1 C-5 1.66 -5 2.32 -5 3 C-10.28 3 -15.56 3 -21 3 C-21 2.67 -21 2.34 -21 2 C-19.53626953 1.80083984 -19.53626953 1.80083984 -18.04296875 1.59765625 C-16.13451172 1.33275391 -16.13451172 1.33275391 -14.1875 1.0625 C-12.29064453 0.80146484 -12.29064453 0.80146484 -10.35546875 0.53515625 C-2.37619617 -0.73744019 -2.37619617 -0.73744019 0 0 Z " fill="#E57461" transform="translate(131,322)"/>
<path d="M0 0 C2.31 0 4.62 0 7 0 C7.33 0.66 7.66 1.32 8 2 C5.69 3.65 3.38 5.3 1 7 C0.67 6.01 0.34 5.02 0 4 C0.33 3.67 0.66 3.34 1 3 C0.67 2.01 0.34 1.02 0 0 Z " fill="#EF7763" transform="translate(402,433)"/>
<path d="M0 0 C0.33 0 0.66 0 1 0 C1.82622671 5.60563042 2.06795656 10.42289352 1 16 C-0.52299523 13.06279492 -1.80100302 10.0831351 -3 7 C-2.34 7 -1.68 7 -1 7 C-0.67 4.69 -0.34 2.38 0 0 Z " fill="#ED7663" transform="translate(229,213)"/>
<path d="M0 0 C5.01508715 1.54058233 9.6147081 3.02931839 14 6 C9.82412255 7.39195915 7.86525224 5.82323219 4 4 C4 3.34 4 2.68 4 2 C2.68 1.67 1.36 1.34 0 1 C0 0.67 0 0.34 0 0 Z " fill="#E67666" transform="translate(198,183)"/>
<path d="M0 0 C0.99 0.33 1.98 0.66 3 1 C2.67 1.66 2.34 2.32 2 3 C2.99 3.33 3.98 3.66 5 4 C3.73392393 4.53229326 2.46189588 5.05044544 1.1875 5.5625 C0.47980469 5.85253906 -0.22789062 6.14257812 -0.95703125 6.44140625 C-3 7 -3 7 -6 6 C-5.38125 5.938125 -4.7625 5.87625 -4.125 5.8125 C-1.72238859 5.171081 -1.72238859 5.171081 -0.75 2.4375 C-0.5025 1.633125 -0.255 0.82875 0 0 Z " fill="#E87764" transform="translate(142,298)"/>
<path d="M0 0 C3.40458262 3.89095157 6.24177968 8.11365765 8 13 C7.67 13.66 7.34 14.32 7 15 C4.18167487 13.59083743 3.97406539 11.92219617 3 9 C3 8.01 3 7.02 3 6 C2.34 6 1.68 6 1 6 C0.67 4.02 0.34 2.04 0 0 Z " fill="#DD7464" transform="translate(450,113)"/>
<path d="M0 0 C2.31 0.66 4.62 1.32 7 2 C2.89457734 4.29903669 -1.69099505 6.35523153 -6.4375 5.625 C-6.953125 5.41875 -7.46875 5.2125 -8 5 C-6.865625 4.54625 -5.73125 4.0925 -4.5625 3.625 C-0.95278308 2.42904194 -0.95278308 2.42904194 0 0 Z " fill="#E87762" transform="translate(342,465)"/>
<path d="M0 0 C0.99 0.33 1.98 0.66 3 1 C2.67 2.32 2.34 3.64 2 5 C2.66 5 3.32 5 4 5 C4 5.66 4 6.32 4 7 C-0.29 6.01 -4.58 5.02 -9 4 C-9 3.67 -9 3.34 -9 3 C-6.03 3.33 -3.06 3.66 0 4 C0 2.68 0 1.36 0 0 Z " fill="#EB7460" transform="translate(204,162)"/>
<path d="M0 0 C2.76276177 0.52268466 5.3260876 1.10869587 8 2 C8.33 3.65 8.66 5.3 9 7 C5.18315774 5.44499019 2.80804268 2.96404505 0 0 Z " fill="#E67564" transform="translate(92,435)"/>
<path d="M0 0 C0.99 0 1.98 0 3 0 C3.33 0.66 3.66 1.32 4 2 C2.78515625 4.3828125 2.78515625 4.3828125 1.0625 7.125 C0.49660156 8.03507812 -0.06929688 8.94515625 -0.65234375 9.8828125 C-1.09707031 10.58148438 -1.54179687 11.28015625 -2 12 C-3 10 -3 10 -2.125 7.125 C-1.75375 6.09375 -1.3825 5.0625 -1 4 C-0.65023242 2.67088318 -0.30903983 1.33917261 0 0 Z " fill="#E37466" transform="translate(451,378)"/>
<path d="M0 0 C4.23429756 1.31061591 8.07407404 2.94356259 12 5 C8.16595445 6.4746329 5.73323149 5.42974823 2 4 C1.01 3.67 0.02 3.34 -1 3 C-0.67 2.01 -0.34 1.02 0 0 Z " fill="#E67563" transform="translate(370,41)"/>
<path d="M0 0 C0.66 0.33 1.32 0.66 2 1 C2.75 4.375 2.75 4.375 3 8 C2.01 9.485 2.01 9.485 1 11 C1.0825 10.236875 1.165 9.47375 1.25 8.6875 C1.29166667 5.85416667 1.29166667 5.85416667 -1 4.1875 C-1.66 3.795625 -2.32 3.40375 -3 3 C-2.34 3 -1.68 3 -1 3 C-0.67 2.01 -0.34 1.02 0 0 Z " fill="#F2745E" transform="translate(468,330)"/>
<path d="M0 0 C3.3 0.33 6.6 0.66 10 1 C9.34 2.32 8.68 3.64 8 5 C5.36 4.01 2.72 3.02 0 2 C0 1.34 0 0.68 0 0 Z " fill="#F27461" transform="translate(327,171)"/>
<path d="M0 0 C0.91007813 0.00902344 1.82015625 0.01804688 2.7578125 0.02734375 C3.45648438 0.03894531 4.15515625 0.05054688 4.875 0.0625 C4.875 0.3925 4.875 0.7225 4.875 1.0625 C4.24851563 1.13726562 3.62203125 1.21203125 2.9765625 1.2890625 C0.46901809 1.69248447 -1.75997183 2.12859491 -4.125 3.0625 C-5.81665301 6.04533157 -5.81665301 6.04533157 -6.125 9.0625 C-6.455 9.0625 -6.785 9.0625 -7.125 9.0625 C-7.125 6.4225 -7.125 3.7825 -7.125 1.0625 C-4.60024538 -0.19987731 -2.81299534 -0.03606404 0 0 Z " fill="#E27564" transform="translate(244.125,154.9375)"/>
<path d="M0 0 C0.66 0 1.32 0 2 0 C2.639375 0.969375 3.27875 1.93875 3.9375 2.9375 C5.71061007 6.24255225 5.71061007 6.24255225 9 7 C9.33 8.65 9.66 10.3 10 12 C5.22864787 8.42148591 2.70923672 5.31427203 0 0 Z " fill="#E0766A" transform="translate(60,402)"/>
<path d="M0 0 C0 3 0 3 -1 5 C-3.06640625 5.4140625 -3.06640625 5.4140625 -5.5625 5.625 C-6.38878906 5.69976562 -7.21507812 5.77453125 -8.06640625 5.8515625 C-9.02353516 5.92503906 -9.02353516 5.92503906 -10 6 C-6.87567603 3.47650757 -3.61939504 1.72743854 0 0 Z " fill="#E97D5E" transform="translate(342,217)"/>
<path d="M0 0 C2.72957339 2.35735884 3.88893396 4.58133526 5 8 C5 8.99 5 9.98 5 11 C4.34 11 3.68 11 3 11 C3 10.01 3 9.02 3 8 C2.34 8 1.68 8 1 8 C0.67 5.36 0.34 2.72 0 0 Z " fill="#E57865" transform="translate(224,202)"/>
<path d="M0 0 C0.66 0.33 1.32 0.66 2 1 C2 1.66 2 2.32 2 3 C0.75579353 3.5345256 -0.49570936 4.05208611 -1.75 4.5625 C-2.44609375 4.85253906 -3.1421875 5.14257812 -3.859375 5.44140625 C-6.30012784 6.07831803 -7.6403655 5.80248831 -10 5 C-8.38007835 4.13624104 -6.75388139 3.28424146 -5.125 2.4375 C-4.22007812 1.96183594 -3.31515625 1.48617188 -2.3828125 0.99609375 C-1.20332031 0.50302734 -1.20332031 0.50302734 0 0 Z " fill="#E57563" transform="translate(373,303)"/>
<path d="M0 0 C4.67692308 1.47692308 4.67692308 1.47692308 6.3125 4.125 C6.539375 4.74375 6.76625 5.3625 7 6 C5.35 6.33 3.7 6.66 2 7 C1.814375 6.071875 1.814375 6.071875 1.625 5.125 C1.12802644 2.80879168 1.12802644 2.80879168 -1 1 C-0.67 0.67 -0.34 0.34 0 0 Z " fill="#EF6D5B" transform="translate(214,192)"/>
<path d="M0 0 C0.66 0 1.32 0 2 0 C2 0.99 2 1.98 2 3 C2.66 3.33 3.32 3.66 4 4 C2.02 4.99 0.04 5.98 -2 7 C-1.125 2.25 -1.125 2.25 0 0 Z " fill="#F0735F" transform="translate(187,274)"/>
<path d="M0 0 C2.31 0 4.62 0 7 0 C4.60490662 2.89932357 2.68754757 3.50168276 -1 4 C-0.67 2.68 -0.34 1.36 0 0 Z " fill="#E87364" transform="translate(331,204)"/>
<path d="M0 0 C0.99 0.33 1.98 0.66 3 1 C-0.465 3.97 -0.465 3.97 -4 7 C-4 5.35 -4 3.7 -4 2 C-2.68 2 -1.36 2 0 2 C0 1.34 0 0.68 0 0 Z " fill="#E87569" transform="translate(424,418)"/>
<path d="M0 0 C1.32 0.33 2.64 0.66 4 1 C2.71186658 1.83878455 1.41936744 2.67086783 0.125 3.5 C-0.59429687 3.9640625 -1.31359375 4.428125 -2.0546875 4.90625 C-4 6 -4 6 -6 6 C-6 5.34 -6 4.68 -6 4 C-5.34 4 -4.68 4 -4 4 C-4 3.34 -4 2.68 -4 2 C-2.68 2 -1.36 2 0 2 C0 1.34 0 0.68 0 0 Z " fill="#E37664" transform="translate(181,281)"/>
<path d="M0 0 C1.5 1.3125 1.5 1.3125 3 3 C3 3.99 3 4.98 3 6 C0.08482708 4.92598892 -1.77810176 4.22189824 -4 2 C-2.68 1.34 -1.36 0.68 0 0 Z " fill="#E97861" transform="translate(117,448)"/>
<path d="M0 0 C0 0.66 0 1.32 0 2 C-5.29230769 5.07692308 -5.29230769 5.07692308 -8.875 4.6875 C-9.57625 4.460625 -10.2775 4.23375 -11 4 C-7.61125486 1.74083657 -4.15175481 0 0 0 Z " fill="#E37464" transform="translate(341,317)"/>
<path d="M0 0 C0.66 0.33 1.32 0.66 2 1 C-0.625 5.875 -0.625 5.875 -4 7 C-4.33 6.01 -4.66 5.02 -5 4 C-3.35 2.68 -1.7 1.36 0 0 Z " fill="#EF7262" transform="translate(207,282)"/>
<path d="M0 0 C1.98 0 3.96 0 6 0 C3.63707344 2.52588702 2.33537489 3.88820837 -1 5 C-0.67 3.35 -0.34 1.7 0 0 Z " fill="#E77562" transform="translate(369,284)"/>
<path d="M0 0 C2.72426311 2.35277269 3.8141763 4.62496331 5 8 C4.01 8 3.02 8 2 8 C0.25 5.6875 0.25 5.6875 -1 3 C-0.67 2.01 -0.34 1.02 0 0 Z " fill="#EF6D5C" transform="translate(238,186)"/>
<path d="M0 0 C2.64 0.33 5.28 0.66 8 1 C8 1.99 8 2.98 8 4 C2.25 2.25 2.25 2.25 0 0 Z " fill="#E07663" transform="translate(120,454)"/>
<path d="M0 0 C1.32 0.33 2.64 0.66 4 1 C2.35 2.65 0.7 4.3 -1 6 C-1.33 5.01 -1.66 4.02 -2 3 C-1.34 2.01 -0.68 1.02 0 0 Z " fill="#E77869" transform="translate(429,411)"/>
<path d="M0 0 C0.66 0.33 1.32 0.66 2 1 C1.67 1.99 1.34 2.98 1 4 C-0.98 4 -2.96 4 -5 4 C-5 3.34 -5 2.68 -5 2 C-2.625 0.9375 -2.625 0.9375 0 0 Z " fill="#E67C6E" transform="translate(324,225)"/>
<path d="M0 0 C0.66 1.32 1.32 2.64 2 4 C-0.375 5.5625 -0.375 5.5625 -3 7 C-3.66 6.67 -4.32 6.34 -5 6 C-3.35 4.02 -1.7 2.04 0 0 Z " fill="#E97563" transform="translate(66,89)"/>
</svg>
